<svg xmlns="http://www.w3.org/2000/svg" width="32" height="32" viewBox="0 0 32 32" fill="none">
  <path d="M9.20016 12.1335L15.5601 9.30682C15.8401 9.18682 16.1601 9.18682 16.4268 9.30682L22.7868 12.1335C23.3468 12.3868 23.8668 11.7068 23.4801 11.2268L16.8134 3.08016C16.3601 2.52016 15.6135 2.52016 15.1601 3.08016L8.49345 11.2268C8.12012 11.7068 8.64016 12.3868 9.20016 12.1335Z" fill="#B92FFF"/>
  <path d="M9.20009 19.8663L15.5734 22.693C15.8534 22.813 16.1734 22.813 16.4401 22.693L22.8134 19.8663C23.3734 19.613 23.8934 20.293 23.5067 20.773L16.8401 28.9197C16.3867 29.4797 15.6401 29.4797 15.1867 28.9197L8.52008 20.773C8.12008 20.293 8.62676 19.613 9.20009 19.8663Z" fill="#B92FFF"/>
  <path d="M15.7068 12.653L10.2001 15.3997C9.70674 15.6397 9.70674 16.3463 10.2001 16.5863L15.7068 19.333C15.8934 19.4263 16.12 19.4263 16.3067 19.333L21.8134 16.5863C22.3067 16.3463 22.3067 15.6397 21.8134 15.3997L16.3067 12.653C16.1067 12.5597 15.8934 12.5597 15.7068 12.653Z" fill="#B92FFF"/>
</svg>