<svg width="16" height="16" viewBox="0 0 16 16" fill="none" xmlns="http://www.w3.org/2000/svg">
<path d="M4.59996 6.06667L7.77993 4.65334C7.91993 4.59334 8.07995 4.59334 8.21328 4.65334L11.3933 6.06667C11.6733 6.19334 11.9333 5.85334 11.7399 5.61334L8.4066 1.54C8.17993 1.26 7.80661 1.26 7.57994 1.54L4.2466 5.61334C4.05994 5.85334 4.31996 6.19334 4.59996 6.06667Z" fill="#B92FFF"/>
<path d="M4.60004 9.93333L7.78669 11.3467C7.92669 11.4067 8.08671 11.4067 8.22004 11.3467L11.4067 9.93333C11.6867 9.80666 11.9467 10.1467 11.7534 10.3867L8.42003 14.46C8.19337 14.74 7.82004 14.74 7.59337 14.46L4.26004 10.3867C4.06004 10.1467 4.31338 9.80666 4.60004 9.93333Z" fill="#B92FFF"/>
<path d="M7.85338 6.32666L5.10004 7.69999C4.85337 7.81999 4.85337 8.17332 5.10004 8.29332L7.85338 9.66666C7.94671 9.71332 8.06001 9.71332 8.15334 9.66666L10.9067 8.29332C11.1533 8.17332 11.1533 7.81999 10.9067 7.69999L8.15334 6.32666C8.05334 6.27999 7.94671 6.27999 7.85338 6.32666Z" fill="#B92FFF"/>
</svg>
