<svg width="24" height="24" viewBox="0 0 24 24" fill="none" xmlns="http://www.w3.org/2000/svg">
<path d="M7.24 2H5.34C3.15 2 2 3.15 2 5.33V7.23C2 9.41 3.15 10.56 5.33 10.56H7.23C9.41 10.56 10.56 9.41 10.56 7.23V5.33C10.57 3.15 9.42 2 7.24 2Z" fill="#B92FFF"/>
<path d="M18.6699 2H16.7699C14.5899 2 13.4399 3.15 13.4399 5.33V7.23C13.4399 9.41 14.5899 10.56 16.7699 10.56H18.6699C20.8499 10.56 21.9999 9.41 21.9999 7.23V5.33C21.9999 3.15 20.8499 2 18.6699 2Z" fill="#B92FFF"/>
<path d="M18.6699 13.4302H16.7699C14.5899 13.4302 13.4399 14.5802 13.4399 16.7602V18.6602C13.4399 20.8402 14.5899 21.9902 16.7699 21.9902H18.6699C20.8499 21.9902 21.9999 20.8402 21.9999 18.6602V16.7602C21.9999 14.5802 20.8499 13.4302 18.6699 13.4302Z" fill="#B92FFF"/>
<path d="M7.24 13.4302H5.34C3.15 13.4302 2 14.5802 2 16.7602V18.6602C2 20.8502 3.15 22.0002 5.33 22.0002H7.23C9.41 22.0002 10.56 20.8502 10.56 18.6702V16.7702C10.57 14.5802 9.42 13.4302 7.24 13.4302Z" fill="#B92FFF"/>
</svg>
