<svg width="24" height="24" viewBox="0 0 24 24" fill="none" xmlns="http://www.w3.org/2000/svg">
<path d="M20.54 19.0398C20.39 19.1898 20.2 19.2598 20.01 19.2598C19.82 19.2598 19.63 19.1898 19.48 19.0398L14.53 14.0898L15.06 13.5598L15.59 13.0298L20.54 17.9798C20.83 18.2698 20.83 18.7498 20.54 19.0398Z" fill="#B92FFF"/>
<path d="M6.46999 9.28009L12.27 15.0801C12.66 15.4701 12.66 16.1001 12.27 16.4901L11.37 17.4001C10.56 18.2001 9.27999 18.2001 8.47999 17.4001L4.13999 13.0601C3.34999 12.2701 3.34999 10.9801 4.13999 10.1801L5.04999 9.27009C5.43999 8.89009 6.07999 8.89009 6.46999 9.28009Z" fill="#B92FFF"/>
<path d="M18.59 10.1902L14.78 13.9902C14.38 14.3902 13.74 14.3902 13.34 13.9902L7.56001 8.21018C7.16001 7.81018 7.16001 7.17018 7.56001 6.77018L11.37 2.96018C12.16 2.17018 13.45 2.17018 14.25 2.96018L18.59 7.30018C19.38 8.10018 19.38 9.38018 18.59 10.1902Z" fill="#B92FFF"/>
<path d="M8 21.75H2C1.59 21.75 1.25 21.41 1.25 21C1.25 20.59 1.59 20.25 2 20.25H8C8.41 20.25 8.75 20.59 8.75 21C8.75 21.41 8.41 21.75 8 21.75Z" fill="#B92FFF"/>
</svg>
